<svg width="13" height="12" viewBox="0 0 13 12" fill="none" xmlns="http://www.w3.org/2000/svg">
<path fill-rule="evenodd" clip-rule="evenodd" d="M7.19473 3.23355L2.12585 8.30243V10.7328H4.55621L9.62509 5.66391L7.19473 3.23355ZM10.5211 4.76786L11.5258 3.76318L9.09547 1.33282L8.09078 2.3375L10.5211 4.76786ZM9.09547 0C8.80139 0 8.51936 0.11682 8.31142 0.32476L8.75031 0.763641L8.31142 0.324761L1.1834 7.45278C1.08044 7.55574 0.998767 7.67798 0.943045 7.8125C0.887323 7.94703 0.858643 8.09121 0.858643 8.23682V10.8912C0.858643 11.1853 0.975463 11.4673 1.1834 11.6752C1.39135 11.8832 1.67337 12 1.96745 12H4.81865C4.9867 12 5.14785 11.9332 5.26668 11.8144L12.5339 4.54722C12.7418 4.33928 12.8586 4.05725 12.8586 3.76318C12.8586 3.4691 12.7418 3.18708 12.5339 2.97913L9.87951 0.324761L9.54976 0.654506L9.87951 0.32476C9.67157 0.11682 9.38954 0 9.09547 0Z" fill="#262626"/>
</svg>
