<svg width="23" height="23" viewBox="0 0 23 23" fill="none" xmlns="http://www.w3.org/2000/svg">
<g clip-path="url(#clip0_732:4338)">
<path d="M15.97 10.3V11.85H17.89V10.3H15.97ZM11.89 20.23H6C5.46421 20.23 4.93367 20.1245 4.43866 19.9194C3.94365 19.7144 3.49385 19.4139 3.11499 19.035C2.73613 18.6562 2.43563 18.2064 2.23059 17.7114C2.02555 17.2164 1.91998 16.6858 1.91998 16.15V6C1.91998 4.91792 2.34984 3.8802 3.11499 3.11505C3.88014 2.3499 4.91792 1.92004 6 1.92004H11.89C12.8201 1.91771 13.7232 2.23246 14.4504 2.81238C15.1775 3.3923 15.6854 4.20275 15.89 5.11005H17.89C17.6769 3.68948 16.9613 2.39247 15.8731 1.45477C14.7849 0.517072 13.3965 0.000867784 11.96 0H6.07001C4.47871 0 2.95255 0.632167 1.82733 1.75739C0.702113 2.8826 0.0700073 4.4087 0.0700073 6V16.15C0.0700073 17.7413 0.702113 19.2674 1.82733 20.3926C2.95255 21.5179 4.47871 22.15 6.07001 22.15H11.96C13.3965 22.1492 14.7849 21.633 15.8731 20.6953C16.9613 19.7576 17.6769 18.4606 17.89 17.04H15.89C15.6814 17.9436 15.1719 18.7495 14.4451 19.3255C13.7183 19.9015 12.8174 20.2134 11.89 20.21V20.23Z" fill="black"/>
<path d="M23 11.0703L22.51 11.5803L22.37 11.7303L18.91 15.3303L18.27 14.5703L20.89 11.8503H10.18C10.085 11.8502 9.9912 11.8296 9.90491 11.7899C9.81862 11.7502 9.74188 11.6924 9.67999 11.6203C9.55038 11.4683 9.47919 11.2751 9.47919 11.0753C9.47919 10.8756 9.55038 10.6823 9.67999 10.5303C9.74188 10.4583 9.81862 10.4004 9.90491 10.3607C9.9912 10.321 10.085 10.3005 10.18 10.3004H20.9L18.27 7.58032L18.91 6.82031L22.38 10.4303L22.48 10.5303L23 11.0703Z" fill="white"/>
<path d="M22.69 11.0698C22.6946 11.2561 22.6305 11.4376 22.51 11.5798L22.37 11.7298C22.2593 11.8092 22.1262 11.8513 21.99 11.8498H10.18C10.085 11.8497 9.9912 11.8291 9.90491 11.7894C9.81862 11.7497 9.74188 11.6918 9.67999 11.6198C9.55038 11.4677 9.47919 11.2745 9.47919 11.0748C9.47919 10.875 9.55038 10.6818 9.67999 10.5298C9.74188 10.4577 9.81862 10.3999 9.90491 10.3602C9.9912 10.3205 10.085 10.2999 10.18 10.2998H21.99C22.1301 10.3031 22.2659 10.3484 22.38 10.4297L22.48 10.5298C22.6185 10.675 22.6941 10.8691 22.69 11.0698Z" fill="black"/>
<path d="M23 11.0703L22.51 11.5803L22.37 11.7303L18.91 15.3303L18.27 14.5703L20.89 11.8503L21.64 11.0703L20.9 10.3003L18.27 7.58031L18.91 6.82031L22.38 10.4303L22.48 10.5303L23 11.0703Z" fill="black"/>
</g>
<defs>
<clipPath id="clip0_732:4338">
<rect width="23" height="22.15" fill="white"/>
</clipPath>
</defs>
</svg>
