<svg width="74" height="20" viewBox="0 0 74 20" fill="none" xmlns="http://www.w3.org/2000/svg">
<path fill-rule="evenodd" clip-rule="evenodd" d="M49.3685 5.67555C50.0237 5.93949 50.6191 6.3222 51.1218 6.8025C51.6256 7.28414 52.0308 7.85141 52.3164 8.47511C52.6128 9.12077 52.7633 9.81884 52.758 10.5238C52.7625 11.2338 52.6121 11.9369 52.3164 12.5884C52.0332 13.2163 51.6283 13.7875 51.1231 14.2721C50.6201 14.7526 50.0248 15.1361 49.3698 15.4015C48.6903 15.6764 47.9592 15.8157 47.2212 15.8107C46.4933 15.8143 45.7718 15.6801 45.0985 15.4158C44.4252 15.1515 43.8135 14.7624 43.2987 14.2709C42.7839 13.7795 42.3763 13.1955 42.0995 12.5528C41.8226 11.91 41.682 11.2212 41.6858 10.5262V1.07188C41.6825 0.929327 41.7105 0.787694 41.7679 0.656061C41.8253 0.524427 41.9109 0.405694 42.0192 0.307473C42.1261 0.207232 42.2529 0.128412 42.3922 0.0756489C42.5315 0.0228856 42.6804 -0.00275602 42.8302 0.000234473C42.9741 -0.00166054 43.1169 0.0246283 43.2497 0.0774717C43.3826 0.130315 43.5027 0.208591 43.6026 0.307473C43.7082 0.407085 43.7914 0.526298 43.847 0.657763C43.9026 0.789228 43.9293 0.93016 43.9257 1.07188V6.31338C44.0377 6.23718 44.1548 6.15975 44.2836 6.08356L44.6414 5.87832C45.0426 5.68999 45.4627 5.54094 45.8953 5.43344C46.3276 5.32365 46.7727 5.26666 47.2199 5.26385C47.9581 5.25862 48.6896 5.39877 49.3685 5.67555ZM48.5085 13.4548C49.3009 13.1351 49.9304 12.5315 50.2619 11.7736C50.4339 11.3827 50.521 10.9625 50.518 10.5385C50.5179 10.1187 50.4304 9.70302 50.2606 9.31571C50.1022 8.93722 49.8623 8.59473 49.5564 8.31043C49.2521 8.02674 48.8967 7.79776 48.5073 7.6345C48.1003 7.46858 47.6624 7.38305 47.2199 7.38305C46.7775 7.38305 46.3396 7.46858 45.9326 7.6345C45.5428 7.79775 45.187 8.02672 44.8822 8.31043C44.5772 8.59549 44.3375 8.93778 44.178 9.31571C44.0089 9.70321 43.9214 10.1187 43.9206 10.5385C43.9186 10.9625 44.0062 11.3826 44.178 11.7736C44.5097 12.5322 45.1403 13.136 45.9339 13.4548C46.7596 13.7737 47.6828 13.7737 48.5085 13.4548ZM17.5457 6.81884C17.0433 6.33827 16.4478 5.95552 15.7924 5.69189C15.1134 5.41553 14.382 5.2758 13.6439 5.28141C12.9157 5.27899 12.1942 5.41352 11.5206 5.67731C10.8469 5.9411 10.2342 6.329 9.71758 6.81884C9.21502 7.29986 8.81385 7.8685 8.53582 8.4939C8.24815 9.14176 8.10227 9.83892 8.10715 10.5426V18.9302C8.10418 19.0724 8.13243 19.2137 8.19007 19.345C8.24771 19.4762 8.33347 19.5944 8.44185 19.6921C8.54851 19.7923 8.67511 19.8711 8.81417 19.9239C8.95324 19.9767 9.10196 20.0023 9.25157 19.9994C9.39545 20.0011 9.53819 19.9748 9.67102 19.9219C9.80384 19.8691 9.92395 19.7909 10.024 19.6921C10.1294 19.5931 10.2124 19.4745 10.268 19.3437C10.3236 19.2129 10.3505 19.0725 10.3471 18.9314V14.7714L11.1349 15.263C11.8536 15.6058 12.6411 15.7971 13.4441 15.8238C14.247 15.8506 15.0466 15.7121 15.7886 15.4178C16.4438 15.1529 17.0392 14.7693 17.5419 14.2884C18.0474 13.8038 18.4527 13.2327 18.7365 12.6048C19.0316 11.9531 19.1819 11.2501 19.1781 10.5401C19.1826 9.83525 19.0322 9.13733 18.7365 8.49144C18.4515 7.86833 18.0477 7.30118 17.5457 6.81884ZM16.6871 11.79C16.4388 12.3636 16.0162 12.8532 15.4738 13.1956C14.9314 13.5379 14.2941 13.7174 13.6439 13.7108C13.2022 13.7146 12.7644 13.6331 12.3566 13.4712C11.9633 13.3146 11.6066 13.0849 11.3074 12.7952C11.0057 12.5077 10.7664 12.166 10.6033 11.79C10.4346 11.3983 10.3497 10.9783 10.3535 10.5549C10.3525 10.1356 10.4373 9.72021 10.6033 9.33205C10.7627 8.95412 11.0025 8.61183 11.3074 8.32676C11.6117 8.04307 11.9671 7.8141 12.3566 7.65084C12.7638 7.48588 13.2016 7.40088 13.6439 7.40088C14.0862 7.40088 14.524 7.48588 14.9312 7.65084C15.3207 7.81469 15.6764 8.04359 15.9817 8.32676C16.2866 8.61183 16.5263 8.95412 16.6858 9.33205C16.8523 9.72006 16.9372 10.1356 16.9356 10.5549C16.9404 10.9783 16.8559 11.3983 16.6871 11.79ZM2.88633 5.31102C-0.944718 5.02345 -1.1494 10.3497 3.40898 11.6561C3.75655 11.7544 3.92391 11.2383 3.58792 11.1252C2.95971 10.8794 2.3315 10.5353 1.93501 9.99456C3.47206 10.3632 5.02456 9.19206 5.00654 7.67676C5.01555 6.56578 4.10928 5.40319 2.88633 5.31102ZM25.7151 5.29038H26.8145C26.9621 5.28681 27.1089 5.31163 27.2462 5.36336C27.3836 5.41509 27.5086 5.49266 27.6139 5.59147C27.8197 5.7955 27.9346 6.06772 27.9346 6.35096C27.9346 6.6342 27.8197 6.90642 27.6139 7.11046C27.5087 7.20917 27.3836 7.28652 27.2462 7.33784C27.1088 7.38916 26.9619 7.4134 26.8145 7.40909H25.7151C25.4234 7.40721 25.1349 7.46591 24.8693 7.58114C24.6091 7.69213 24.3739 7.85032 24.1768 8.04692C23.979 8.24277 23.8175 8.46925 23.6992 8.7167C23.5798 8.9701 23.5187 9.24503 23.5202 9.52289V14.7742C23.5218 14.9119 23.4937 15.0484 23.4377 15.1752C23.3816 15.3021 23.2989 15.4166 23.1945 15.5116C23.0919 15.6098 22.9695 15.6872 22.8349 15.7394C22.7002 15.7915 22.5559 15.8173 22.4106 15.8151C22.261 15.8187 22.1121 15.7932 21.9732 15.7402C21.8342 15.6871 21.708 15.6077 21.6021 15.5067C21.4977 15.4117 21.4148 15.2973 21.3588 15.1704C21.3028 15.0435 21.2747 14.907 21.2764 14.7693V9.50692C21.2729 8.94635 21.3921 8.39127 21.6266 7.87732C21.8553 7.3743 22.1831 6.91788 22.5921 6.53285C22.9996 6.14689 23.4801 5.83828 24.0081 5.62342C24.5471 5.40149 25.1282 5.28811 25.7151 5.29038ZM37.9224 6.82375C37.4189 6.34413 36.8237 5.96116 36.1691 5.69557C35.4885 5.42465 34.7585 5.28516 34.0212 5.28516C33.2838 5.28516 32.5538 5.42465 31.8733 5.69557C30.5503 6.22936 29.4973 7.23454 28.9382 8.49759C28.6544 9.14727 28.5083 9.8442 28.5083 10.5481C28.5083 11.252 28.6544 11.9489 28.9382 12.5986C29.4973 13.8623 30.5501 14.8683 31.8733 15.4031C32.554 15.6732 33.284 15.8123 34.0212 15.8123C34.7584 15.8123 35.4883 15.6732 36.1691 15.4031C36.8245 15.1384 37.42 14.7549 37.9224 14.2737C38.4268 13.7916 38.832 13.2234 39.117 12.5986C39.4083 11.9508 39.5585 11.2531 39.5585 10.5481C39.5585 9.84309 39.4083 9.14544 39.117 8.49759C38.8317 7.87336 38.4265 7.30563 37.9224 6.82375ZM37.065 11.7801C36.7195 12.544 36.0733 13.1476 35.2658 13.4607C34.4583 13.7739 33.5543 13.7714 32.7487 13.454C32.3621 13.2978 32.012 13.0697 31.7188 12.783C31.4243 12.4915 31.1871 12.1518 31.0185 11.7801C30.846 11.3928 30.7572 10.9763 30.7572 10.5555C30.7572 10.1346 30.846 9.71812 31.0185 9.33082C31.3471 8.57823 31.9694 7.97711 32.7538 7.65453C33.1597 7.48912 33.5965 7.40385 34.0379 7.40385C34.4793 7.40385 34.9161 7.48912 35.322 7.65453C35.7109 7.81708 36.0658 8.04522 36.3699 8.328C36.6728 8.61298 36.9111 8.95431 37.0702 9.33082C37.4032 10.1163 37.4032 10.9946 37.0702 11.7801H37.065ZM64.2606 6.84035C63.7564 6.36096 63.1608 5.97802 62.506 5.71218C61.8254 5.44125 61.0954 5.30176 60.3581 5.30176C59.6208 5.30176 58.8907 5.44125 58.2102 5.71218C56.8882 6.24738 55.8357 7.2521 55.2751 8.51419C54.9913 9.16387 54.8452 9.8608 54.8452 10.5647C54.8452 11.2686 54.9913 11.9655 55.2751 12.6152C55.8352 13.8782 56.8877 14.8839 58.2102 15.4197C58.8909 15.6898 59.6209 15.8289 60.3581 15.8289C61.0953 15.8289 61.8252 15.6898 62.506 15.4197C63.1616 15.1547 63.7575 14.7712 64.2606 14.2903C64.7646 13.8081 65.1694 13.2399 65.4539 12.6152C65.7452 11.9674 65.8954 11.2697 65.8954 10.5647C65.8954 9.85969 65.7452 9.16204 65.4539 8.51419C65.1691 7.89002 64.7643 7.32229 64.2606 6.84035ZM63.4019 11.7967C63.0564 12.5606 62.4102 13.1642 61.6027 13.4773C60.7953 13.7905 59.8912 13.788 59.0856 13.4706C58.6988 13.3149 58.3486 13.0867 58.0557 12.7996C57.7608 12.5081 57.5232 12.1684 57.3541 11.7967C57.1817 11.4096 57.0928 10.9933 57.0928 10.5727C57.0928 10.1521 57.1817 9.73574 57.3541 9.34865C57.6821 8.59701 58.3021 7.9958 59.0843 7.67113C59.4911 7.50486 59.9291 7.41914 60.3716 7.41914C60.8141 7.41914 61.2521 7.50486 61.6589 7.67113C62.0481 7.83309 62.4032 8.0613 62.7068 8.3446C63.01 8.62983 63.2483 8.97161 63.4071 9.34865C63.74 10.1337 63.74 11.0117 63.4071 11.7967H63.4019ZM73.9993 13.4488C73.9993 14.7635 72.8829 15.8293 71.5057 15.8293C70.1286 15.8293 69.0122 14.7635 69.0122 13.4488C69.0122 12.1341 70.1286 11.0684 71.5057 11.0684C72.8829 11.0684 73.9993 12.1341 73.9993 13.4488Z" fill="#262626"/>
</svg>
